<?xml version="1.0" standalone="no"?>
<!DOCTYPE svg PUBLIC "-//W3C//DTD SVG 20010904//EN"
 "http://www.w3.org/TR/2001/REC-SVG-20010904/DTD/svg10.dtd">
<svg version="1.0" xmlns="http://www.w3.org/2000/svg"
 width="435.000000pt" height="440.000000pt" viewBox="0 0 435.000000 440.000000"
 preserveAspectRatio="xMidYMid meet">

<g transform="translate(0.000000,440.000000) scale(0.100000,-0.100000)"
fill="#000000" stroke="none">
<path d="M2070 3722 c22 -10 24 -33 2 -25 -12 5 -10 -1 8 -21 14 -15 25 -33
26 -39 3 -33 5 -36 22 -30 9 3 14 2 10 -2 -5 -5 -63 -23 -130 -41 -68 -18
-163 -46 -213 -62 -49 -17 -148 -49 -220 -71 -142 -44 -348 -139 -305 -140 25
-1 50 -17 50 -33 0 -4 -7 -4 -17 -1 -11 4 -14 3 -9 -5 4 -7 -6 -26 -26 -45
-64 -62 -62 -70 3 -15 97 82 206 152 329 214 91 46 124 57 207 69 177 27 479
15 673 -26 30 -6 73 -15 95 -19 88 -17 318 -102 350 -129 11 -9 37 -26 58 -36
20 -11 37 -23 37 -27 0 -5 7 -8 15 -8 8 0 25 -11 39 -25 14 -14 30 -25 36 -25
5 0 10 -4 10 -10 0 -5 7 -10 15 -10 8 0 25 -10 37 -22 21 -21 21 -22 2 -29
-16 -6 -16 -8 -2 -8 10 -1 25 11 33 27 9 15 14 19 11 8 -5 -14 -2 -17 9 -12 9
3 14 2 11 -3 -7 -11 49 -73 58 -63 4 4 7 3 6 -3 -4 -20 0 -36 9 -31 5 3 12 -1
15 -10 4 -9 2 -13 -5 -8 -6 4 -15 0 -20 -7 -7 -11 -9 -10 -9 4 0 25 -14 21
-30 -8 -15 -27 -36 -35 -26 -9 3 9 2 12 -4 9 -6 -4 -36 17 -68 46 -166 152
-424 279 -599 294 -37 4 -75 9 -83 12 -18 6 -143 12 -331 16 -106 1 -135 5
-132 15 3 7 18 19 34 28 81 41 -15 14 -139 -40 -45 -19 -113 -41 -150 -47
-150 -26 -336 -104 -487 -205 -64 -42 -84 -60 -70 -63 11 -2 27 6 36 18 19 23
35 29 23 9 -4 -7 2 -5 14 5 23 21 53 20 60 -2 3 -10 -1 -12 -16 -9 -17 5 -20
1 -20 -27 0 -21 -16 -56 -45 -103 -25 -39 -57 -92 -71 -119 -13 -26 -45 -68
-71 -93 -132 -126 -248 -316 -316 -513 -29 -86 -31 -98 -25 -182 17 -241 152
-627 298 -851 57 -87 199 -238 286 -304 68 -51 82 -58 82 -40 0 6 -6 10 -14
10 -8 0 -18 4 -21 10 -3 6 1 7 9 4 21 -8 20 8 -2 37 -11 13 -21 33 -24 45 -5
20 -3 20 45 12 28 -5 80 -21 116 -34 149 -57 189 -73 246 -99 230 -104 409
-145 665 -152 114 -4 177 -9 165 -14 -36 -15 55 2 174 32 202 51 406 165 548
306 41 41 73 77 69 80 -3 3 -13 0 -23 -8 -27 -23 -7 7 57 82 158 184 256 377
294 579 19 97 18 90 8 90 -5 0 -14 -10 -20 -22 l-11 -23 0 24 c-1 16 -5 21
-16 17 -11 -4 -15 2 -15 22 0 22 -2 24 -11 12 -8 -12 -10 -10 -5 10 11 54 25
148 31 207 6 58 6 61 -13 56 -14 -3 -32 7 -60 36 -42 44 -48 67 -72 291 -4 41
-11 84 -15 95 -7 16 -4 15 12 -5 12 -14 24 -22 27 -19 9 9 -19 70 -63 138 -21
33 -48 86 -61 118 -39 99 -103 238 -112 241 -4 2 -8 8 -8 13 0 12 -86 140
-127 188 -51 61 -137 147 -188 187 -27 21 -52 41 -55 44 -14 15 -117 80 -125
80 -16 0 -36 38 -25 45 6 3 10 1 10 -4 0 -6 6 -11 13 -11 15 0 169 -60 212
-83 17 -8 61 -36 100 -61 38 -25 74 -46 79 -46 24 0 -133 95 -271 165 -211
106 -372 159 -556 184 -85 12 -362 14 -337 3z m673 -162 c15 0 27 -4 27 -10 0
-5 -6 -10 -12 -10 -10 0 -9 -3 1 -9 7 -5 23 -6 35 -3 11 3 18 1 14 -3 -4 -4
13 -21 39 -37 32 -20 48 -26 53 -18 5 8 9 7 13 -4 4 -10 1 -16 -9 -16 -8 0
-12 -4 -9 -10 3 -6 -4 -9 -19 -8 -13 1 -22 6 -19 11 3 5 -8 6 -26 2 -17 -4
-31 -3 -31 2 0 10 -57 36 -127 58 -34 11 -53 22 -53 32 0 10 -6 13 -16 9 -22
-8 -40 4 -23 16 8 5 41 6 74 3 33 -3 72 -6 88 -5z m-503 -240 c84 -14 156 -40
138 -51 -7 -5 -8 -9 -3 -9 46 -2 215 -23 280 -36 270 -52 520 -189 655 -357
56 -69 171 -292 163 -313 -4 -11 -9 -10 -24 7 -10 12 -21 30 -24 40 -4 11 -11
19 -17 19 -5 0 3 -24 20 -53 66 -117 122 -280 122 -357 0 -16 5 -32 10 -35 6
-3 10 -12 10 -18 0 -7 -6 -4 -14 5 -21 28 -25 10 -9 -39 22 -63 12 -188 -26
-328 -16 -61 -27 -123 -24 -137 3 -15 -2 -61 -11 -102 -13 -57 -28 -90 -65
-143 -62 -88 -171 -196 -294 -294 -53 -42 -92 -79 -85 -81 7 -3 -1 -16 -18
-32 -27 -26 -27 -28 -6 -23 29 7 29 -9 0 -16 -12 -4 -19 -9 -15 -13 4 -4 0
-15 -9 -25 -11 -12 -15 -29 -12 -49 5 -30 2 -33 -59 -63 -34 -17 -63 -37 -63
-44 0 -7 -6 -13 -14 -13 -7 0 -34 -11 -59 -24 -25 -14 -67 -27 -94 -30 -35 -4
-41 -3 -23 3 24 9 23 9 -7 8 -17 -1 -29 -5 -26 -9 9 -16 -52 4 -65 21 -7 9
-17 16 -23 16 -10 0 -29 24 -29 36 0 4 22 24 50 45 28 21 50 41 50 45 0 4 -33
-8 -74 -27 -114 -52 -287 -68 -486 -44 -106 13 -120 17 -100 30 12 7 9 10 -12
10 -14 0 -28 -3 -31 -7 -2 -5 -2 -2 0 6 2 10 -4 12 -26 8 -17 -4 -33 -2 -37 4
-3 6 -16 14 -28 19 -12 4 104 7 264 7 265 -1 292 0 385 22 90 21 153 50 139
64 -3 3 5 11 18 18 12 7 32 20 43 31 11 10 29 25 40 33 21 15 -36 -4 -127 -44
-75 -32 -254 -79 -371 -97 -143 -21 -285 -8 -458 41 -178 51 -221 78 -357 219
-64 67 -110 113 -103 103 8 -9 11 -20 7 -24 -10 -10 -16 1 -20 35 -2 17 -14
44 -27 60 -13 16 -30 38 -37 48 -11 17 -12 16 -7 -11 4 -24 3 -27 -5 -12 -6 9
-9 25 -6 35 5 14 -1 17 -37 17 -28 0 -53 8 -74 23 -17 12 -45 25 -62 28 -26 6
-31 3 -31 -13 0 -10 5 -24 12 -31 6 -6 10 -14 7 -16 -6 -6 -72 93 -72 109 0 8
-4 12 -8 10 -14 -9 -59 131 -75 235 -24 155 -6 368 29 354 7 -2 25 8 40 24 25
27 28 36 36 158 5 71 13 141 19 155 6 15 8 30 4 35 -4 4 1 4 11 1 11 -4 16 -3
12 3 -3 5 -1 18 4 27 10 17 10 17 11 -2 0 -18 1 -18 16 3 8 12 13 25 11 30 -3
4 1 13 9 20 11 10 13 7 7 -20 -3 -18 -10 -41 -15 -50 -5 -10 -7 -18 -4 -18 3
0 0 -15 -5 -32 -37 -126 -61 -280 -60 -393 0 -125 26 -286 54 -342 8 -16 12
-34 10 -40 -5 -15 13 -18 21 -4 3 4 -6 52 -19 106 -14 54 -25 107 -25 119 1
20 2 19 15 -4 8 -14 14 -32 15 -41 0 -9 10 -24 22 -35 l21 -19 -6 35 c-3 19
-15 77 -26 129 -31 145 -37 306 -16 421 10 52 29 120 42 150 33 76 105 189
143 225 l32 30 -7 -30 c-4 -16 -11 -43 -16 -59 -17 -53 -2 -38 41 41 79 146
129 210 196 254 35 22 68 47 75 55 21 25 3 25 -35 -1 -64 -44 -25 6 57 72 85
69 225 140 347 176 127 38 198 44 310 27z m-820 -154 c0 -3 -4 -8 -10 -11 -5
-3 -10 -1 -10 4 0 6 5 11 10 11 6 0 10 -2 10 -4z m-36 -41 c-9 -6 -28 -9 -43
-6 -24 5 -25 6 -3 9 12 2 22 7 22 12 0 4 9 6 20 3 19 -5 19 -7 4 -18z m1896
-146 c0 -5 4 -8 9 -5 5 3 11 -3 14 -14 4 -14 0 -20 -12 -20 -23 0 -41 19 -34
36 6 16 23 19 23 3z m335 -849 c3 -5 1 -10 -4 -10 -6 0 -11 5 -11 10 0 6 2 10
4 10 3 0 8 -4 11 -10z m35 -60 c0 -11 -2 -20 -4 -20 -2 0 -6 9 -9 20 -3 11 -1
20 4 20 5 0 9 -9 9 -20z m-2396 -755 c3 -8 1 -15 -4 -15 -6 0 -10 7 -10 15 0
8 2 15 4 15 2 0 6 -7 10 -15z"/>
<path d="M3356 2677 c3 -10 9 -15 12 -12 3 3 0 11 -7 18 -10 9 -11 8 -5 -6z"/>
<path d="M1105 1780 c3 -5 8 -10 11 -10 2 0 4 5 4 10 0 6 -5 10 -11 10 -5 0
-7 -4 -4 -10z"/>
<path d="M1076 1644 c-9 -23 -7 -36 4 -29 6 3 10 -4 11 -17 1 -35 34 -104 43
-90 4 7 3 12 -2 12 -6 0 -8 9 -5 19 3 11 -2 34 -11 52 -9 18 -16 38 -16 45 0
20 -17 26 -24 8z"/>
<path d="M3477 1653 c-4 -3 -7 -11 -7 -17 0 -6 5 -5 12 2 6 6 9 14 7 17 -3 3
-9 2 -12 -2z"/>
<path d="M1159 3083 c-13 -16 -12 -17 4 -4 9 7 17 15 17 17 0 8 -8 3 -21 -13z"/>
<path d="M3220 3036 c0 -2 8 -10 18 -17 15 -13 16 -12 3 4 -13 16 -21 21 -21
13z"/>
<path d="M1102 2992 c-12 -22 -22 -50 -21 -63 0 -18 7 -10 25 30 30 65 27 88
-4 33z"/>
<path d="M3606 2500 c7 -28 12 -35 18 -29 2 2 -2 15 -10 29 l-15 25 7 -25z"/>
<path d="M3572 2450 c0 -14 2 -19 5 -12 2 6 2 18 0 25 -3 6 -5 1 -5 -13z"/>
</g>
</svg>
